<svg width="51" height="46" viewBox="0 0 51 46" fill="none" xmlns="http://www.w3.org/2000/svg">
<g clip-path="url(#clip0)">
<path d="M43.2313 7.91843L38.1354 12.4871L40.7323 14.8154C41.6535 15.6413 41.6535 16.9768 40.7323 17.7938L39.0272 19.3226C40.1836 21.6157 40.8303 24.1637 40.8303 26.8434C40.8303 36.9385 31.7068 45.1182 20.4469 45.1182C9.18702 45.1182 0.0634766 36.9472 0.0634766 26.8522C0.0634766 16.7571 9.18702 8.57738 20.4469 8.57738C23.4358 8.57738 26.2777 9.15725 28.8355 10.194L30.5406 8.66524C31.4618 7.83935 32.9514 7.83935 33.8627 8.66524L36.4597 10.9935L41.5555 6.42482L43.2313 7.91843ZM49.0621 5.41443H46.7102C46.0634 5.41443 45.5342 5.88887 45.5342 6.46875C45.5342 7.04862 46.0634 7.52306 46.7102 7.52306H49.0621C49.7089 7.52306 50.2381 7.04862 50.2381 6.46875C50.2381 5.88887 49.7089 5.41443 49.0621 5.41443ZM43.1823 0.142853C42.5355 0.142853 42.0063 0.617295 42.0063 1.19717V3.3058C42.0063 3.88567 42.5355 4.36011 43.1823 4.36011C43.8291 4.36011 44.3582 3.88567 44.3582 3.3058V1.19717C44.3582 0.617295 43.8291 0.142853 43.1823 0.142853ZM46.5044 4.97513L48.1703 3.48152C48.6309 3.06858 48.6309 2.40084 48.1703 1.9879C47.7097 1.57496 46.965 1.57496 46.5044 1.9879L44.8384 3.48152C44.3778 3.89446 44.3778 4.56219 44.8384 4.97513C45.3088 5.38807 46.0536 5.38807 46.5044 4.97513ZM39.8602 4.97513C40.3208 5.38807 41.0655 5.38807 41.5261 4.97513C41.9867 4.56219 41.9867 3.89446 41.5261 3.48152L39.8602 1.9879C39.3996 1.57496 38.6548 1.57496 38.1942 1.9879C37.7336 2.40084 37.7336 3.06858 38.1942 3.48152L39.8602 4.97513ZM46.5044 7.96236C46.0438 7.54942 45.299 7.54942 44.8384 7.96236C44.3778 8.3753 44.3778 9.04303 44.8384 9.45597L46.5044 10.9496C46.965 11.3625 47.7097 11.3625 48.1703 10.9496C48.6309 10.5366 48.6309 9.86891 48.1703 9.45597L46.5044 7.96236ZM11.0392 24.0407C11.0392 20.9392 13.8517 18.4177 17.311 18.4177C18.1734 18.4177 18.879 17.7851 18.879 17.0119C18.879 16.2387 18.1734 15.6061 17.311 15.6061C12.1269 15.6061 7.90326 19.3929 7.90326 24.0407C7.90326 24.8138 8.60884 25.4464 9.47121 25.4464C10.3336 25.4464 11.0392 24.8138 11.0392 24.0407Z" fill="#546877"/>
</g>
<defs>
<clipPath id="clip0">
<rect width="50.1746" height="44.9841" fill="white" transform="translate(0.0634766 0.142853)"/>
</clipPath>
</defs>
</svg>
