<svg width="53" height="53" viewBox="0 0 53 53" fill="none" xmlns="http://www.w3.org/2000/svg">
<path d="M26.3334 1.49356C12.4448 1.49356 1.19202 12.7464 1.19202 26.6349C1.19202 40.5235 12.4448 51.7763 26.3334 51.7763C40.222 51.7763 51.4748 40.5235 51.4748 26.6349C51.4748 12.7464 40.222 1.49356 26.3334 1.49356ZM26.3334 46.9102C15.1313 46.9102 6.05809 37.837 6.05809 26.6349C6.05809 15.4328 15.1313 6.35963 26.3334 6.35963C37.5355 6.35963 46.6087 15.4328 46.6087 26.6349C46.6087 37.837 37.5355 46.9102 26.3334 46.9102ZM32.5985 36.3265L23.9916 30.0716C23.6773 29.8384 23.4948 29.4735 23.4948 29.0882V12.4422C23.4948 11.7731 24.0423 11.2257 24.7114 11.2257H27.9554C28.6245 11.2257 29.1719 11.7731 29.1719 12.4422V26.8073L35.9439 31.7342C36.4913 32.1295 36.6028 32.8899 36.2075 33.4373L34.3016 36.0629C33.9062 36.6002 33.1459 36.7219 32.5985 36.3265Z" fill="#546877"/>
</svg>
