<svg width="21" height="31" viewBox="0 0 21 31" fill="none" xmlns="http://www.w3.org/2000/svg">
<g clip-path="url(#clip0)">
<path d="M6.51955 15.5L0.549459 9.44107C-0.183153 8.69756 -0.183153 7.49207 0.549459 6.74795L1.87628 5.40139C2.60889 4.65787 3.79671 4.65787 4.52991 5.40139L10.5 11.4603L16.4701 5.40139C17.2027 4.65787 18.3905 4.65787 19.1237 5.40139L20.4505 6.74795C21.1832 7.49146 21.1832 8.69695 20.4505 9.44107L14.4805 15.5L20.4505 21.5589C21.1832 22.3024 21.1832 23.5079 20.4505 24.2521L19.1237 25.5986C18.3911 26.3421 17.2027 26.3421 16.4701 25.5986L10.5 19.5397L4.52991 25.5986C3.7973 26.3421 2.60889 26.3421 1.87628 25.5986L0.549459 24.2521C-0.183153 23.5085 -0.183153 22.303 0.549459 21.5589L6.51955 15.5Z" fill="#546877"/>
</g>
<defs>
<clipPath id="clip0">
<rect width="21" height="31" fill="white" transform="matrix(-1 0 0 1 21 0)"/>
</clipPath>
</defs>
</svg>
