<svg width="25" height="25" viewBox="0 0 25 25" fill="none" xmlns="http://www.w3.org/2000/svg">
<path d="M23.7988 15.4151L21.7188 14.2139C21.9287 13.0811 21.9287 11.919 21.7188 10.7861L23.7988 9.58498C24.0381 9.44826 24.1455 9.16506 24.0674 8.90138C23.5254 7.1631 22.6025 5.59084 21.3965 4.28224C21.2109 4.08205 20.9082 4.03322 20.6738 4.16994L18.5938 5.37111C17.7197 4.61916 16.7139 4.0381 15.625 3.65724V1.25978C15.625 0.986343 15.4346 0.747086 15.166 0.688492C13.374 0.288101 11.5381 0.307632 9.83399 0.688492C9.56544 0.747086 9.37501 0.986343 9.37501 1.25978V3.66213C8.29102 4.04787 7.28516 4.62892 6.40626 5.37599L4.33106 4.17482C4.0918 4.0381 3.79395 4.08205 3.60841 4.28713C2.40235 5.59084 1.4795 7.1631 0.937509 8.90627C0.854501 9.16994 0.966806 9.45314 1.20606 9.58986L3.28614 10.791C3.07618 11.9238 3.07618 13.086 3.28614 14.2188L1.20606 15.4199C0.966806 15.5567 0.859384 15.8399 0.937509 16.1035C1.4795 17.8418 2.40235 19.4141 3.60841 20.7227C3.79395 20.9229 4.09669 20.9717 4.33106 20.835L6.41114 19.6338C7.28516 20.3858 8.29102 20.9668 9.37989 21.3477V23.75C9.37989 24.0235 9.57032 24.2627 9.83887 24.3213C11.6309 24.7217 13.4668 24.7022 15.1709 24.3213C15.4395 24.2627 15.6299 24.0235 15.6299 23.75V21.3477C16.7139 20.9619 17.7197 20.3809 18.5986 19.6338L20.6787 20.835C20.918 20.9717 21.2158 20.9278 21.4014 20.7227C22.6074 19.419 23.5303 17.8467 24.0723 16.1035C24.1455 15.835 24.0381 15.5518 23.7988 15.4151ZM12.5 16.4063C10.3467 16.4063 8.59376 14.6533 8.59376 12.5C8.59376 10.3467 10.3467 8.59377 12.5 8.59377C14.6533 8.59377 16.4063 10.3467 16.4063 12.5C16.4063 14.6533 14.6533 16.4063 12.5 16.4063Z" fill="#546877"/>
</svg>
